<svg width="32" height="32" viewBox="0 0 32 32" fill="none" xmlns="http://www.w3.org/2000/svg">
<g clip-path="url(#clip0_64_250)">
<circle cx="16" cy="16" r="16" fill="white"/>
<path d="M23.5833 10.5834H22.695L20.8533 5.51337C20.7009 5.09532 20.4239 4.73408 20.0597 4.47838C19.6955 4.22267 19.2617 4.08481 18.8167 4.08337H17.0833C16.4875 4.08337 16 4.57087 16 5.16671C16 5.76254 16.4875 6.25004 17.0833 6.25004H18.8167L20.3983 10.5834H15.1875L14.7975 9.50004H14.895C15.4908 9.50004 15.9783 9.01254 15.9783 8.41671C15.9783 7.82087 15.4908 7.33337 14.895 7.33337H11.6667C11.0708 7.33337 10.5833 7.82087 10.5833 8.41671C10.5833 9.01254 11.0708 9.50004 11.6667 9.50004H12.4792L14.4508 14.9167H13.725C13.2483 12.5009 11.2225 10.7134 8.6875 10.5942C5.65417 10.4425 3 12.9667 3 16C3 19.0334 5.38333 21.4167 8.41667 21.4167C11.0817 21.4167 13.2375 19.5859 13.725 17.0834H18.275C18.7517 19.4992 20.7775 21.2867 23.3125 21.4059C26.3458 21.5467 29 19.0334 29 15.9892C29 12.9667 26.6167 10.5834 23.5833 10.5834ZM9.5 17.0834H11.4717C11.0167 18.4159 9.73833 19.3367 8.2 19.2392C6.58583 19.1417 5.2425 17.7767 5.16667 16.1517C5.09083 14.2559 6.5425 12.75 8.41667 12.75C9.8575 12.75 11.0383 13.6492 11.4717 14.9167H9.5C8.90417 14.9167 8.41667 15.4042 8.41667 16C8.41667 16.5959 8.90417 17.0834 9.5 17.0834ZM18.275 14.9167H16.7583L15.9675 12.75H19.25C18.7733 13.3784 18.4267 14.1042 18.275 14.9167ZM23.4533 19.25C21.785 19.185 20.3767 17.7659 20.3333 16.0867C20.3117 15.0467 20.7558 14.1367 21.4708 13.53L22.1425 15.3717C22.3483 15.935 22.9658 16.2275 23.5292 16.0217C24.0925 15.8159 24.385 15.1984 24.1792 14.635L23.4967 12.7609L23.5075 12.75C23.9418 12.7352 24.3747 12.8086 24.7799 12.9657C25.1851 13.1228 25.5543 13.3604 25.8651 13.6642C26.1759 13.9679 26.422 14.3315 26.5884 14.733C26.7548 15.1344 26.8381 15.5655 26.8333 16C26.8333 17.8634 25.3383 19.315 23.4533 19.25ZM14.9167 24.6667H10.5833L17.0833 27.9167V25.75H21.4167L14.9167 22.5V24.6667Z" fill="url(#paint0_linear_64_250)"/>
</g>
<defs>
<linearGradient id="paint0_linear_64_250" x1="16" y1="4.08337" x2="16" y2="27.9167" gradientUnits="userSpaceOnUse">
<stop stop-color="#FFB60D"/>
<stop offset="1" stop-color="#E59317"/>
</linearGradient>
<clipPath id="clip0_64_250">
<rect width="32" height="32" fill="white"/>
</clipPath>
</defs>
</svg>
