<svg width="83" height="77" viewBox="0 0 83 77" fill="none" xmlns="http://www.w3.org/2000/svg">
<path d="M65.7083 21.2083H62.8725L56.9933 5.02331C56.5066 3.68875 55.6223 2.53556 54.4597 1.71928C53.2972 0.902992 51.9122 0.462884 50.4917 0.458313H44.9583C43.0562 0.458313 41.5 2.01456 41.5 3.91665C41.5 5.81873 43.0562 7.37498 44.9583 7.37498H50.4917L55.5408 21.2083H38.9062L37.6613 17.75H37.9725C39.8746 17.75 41.4308 16.1937 41.4308 14.2916C41.4308 12.3896 39.8746 10.8333 37.9725 10.8333H27.6667C25.7646 10.8333 24.2083 12.3896 24.2083 14.2916C24.2083 16.1937 25.7646 17.75 27.6667 17.75H30.2604L36.5546 35.0416H34.2375C32.7158 27.3296 26.2487 21.6233 18.1562 21.2429C8.47292 20.7587 0 28.8166 0 38.5C0 48.1833 7.60833 55.7916 17.2917 55.7916C25.7992 55.7916 32.6812 49.9471 34.2375 41.9583H48.7625C50.2842 49.6704 56.7512 55.3766 64.8437 55.7571C74.5271 56.2066 83 48.1833 83 38.4654C83 28.8166 75.3917 21.2083 65.7083 21.2083ZM20.75 41.9583H27.0442C25.5917 46.2121 21.5108 49.1516 16.6 48.8404C11.4471 48.5291 7.15875 44.1716 6.91667 38.9841C6.67458 32.9321 11.3087 28.125 17.2917 28.125C21.8912 28.125 25.6608 30.9954 27.0442 35.0416H20.75C18.8479 35.0416 17.2917 36.5979 17.2917 38.5C17.2917 40.4021 18.8479 41.9583 20.75 41.9583ZM48.7625 35.0416H43.9208L41.3962 28.125H51.875C50.3533 30.1308 49.2467 32.4479 48.7625 35.0416ZM65.2933 48.875C59.9675 48.6675 55.4717 44.1371 55.3333 38.7766C55.2642 35.4566 56.6821 32.5516 58.9646 30.615L61.1087 36.4941C61.7658 38.2925 63.7371 39.2262 65.5354 38.5691C67.3338 37.9121 68.2675 35.9408 67.6104 34.1425L65.4317 28.1596L65.4662 28.125C66.8528 28.0777 68.2346 28.3119 69.5281 28.8135C70.8216 29.315 72.0001 30.0735 72.9924 31.0431C73.9846 32.0128 74.7701 33.1735 75.3014 34.4551C75.8326 35.7367 76.0986 37.1127 76.0833 38.5C76.0833 44.4483 71.3108 49.0825 65.2933 48.875ZM38.0417 66.1666H24.2083L44.9583 76.5416V69.625H58.7917L38.0417 59.25V66.1666Z" fill="white"/>
</svg>
