<svg xmlns="http://www.w3.org/2000/svg" width="52" height="51" fill="none"><path fill="gray" fill-opacity=".3" d="M48 13.73c0-1.083.895-1.96 2-1.96s2 .877 2 1.96c0 1.084-.895 1.962-2 1.962s-2-.878-2-1.961ZM48 1.962C48 .878 48.895 0 50 0s2 .878 2 1.962c0 1.083-.895 1.961-2 1.961s-2-.878-2-1.961ZM36 37.27c0-1.084.895-1.962 2-1.962s2 .878 2 1.961c0 1.084-.895 1.962-2 1.962s-2-.878-2-1.962ZM36 25.5c0-1.083.895-1.962 2-1.962s2 .879 2 1.962-.895 1.962-2 1.962-2-.879-2-1.962ZM36 13.73c0-1.083.895-1.96 2-1.96s2 .877 2 1.96c0 1.084-.895 1.962-2 1.962s-2-.878-2-1.961ZM36 1.962C36 .878 36.895 0 38 0s2 .878 2 1.962c0 1.083-.895 1.961-2 1.961s-2-.878-2-1.961ZM24 37.27c0-1.084.895-1.962 2-1.962s2 .878 2 1.961c0 1.084-.895 1.962-2 1.962s-2-.878-2-1.962ZM24 25.5c0-1.083.895-1.962 2-1.962s2 .879 2 1.962-.895 1.962-2 1.962-2-.879-2-1.962ZM24 13.73c0-1.083.895-1.96 2-1.96s2 .877 2 1.96c0 1.084-.895 1.962-2 1.962s-2-.878-2-1.961ZM24 1.962C24 .878 24.895 0 26 0s2 .878 2 1.962c0 1.083-.895 1.961-2 1.961s-2-.878-2-1.961ZM12 49.038c0-1.083.895-1.961 2-1.961s2 .878 2 1.962C16 50.121 15.105 51 14 51s-2-.878-2-1.962ZM12 37.27c0-1.084.895-1.962 2-1.962s2 .878 2 1.961c0 1.084-.895 1.962-2 1.962s-2-.878-2-1.962ZM12 25.5c0-1.083.895-1.962 2-1.962s2 .879 2 1.962-.895 1.962-2 1.962-2-.879-2-1.962ZM12 13.73c0-1.083.895-1.96 2-1.96s2 .877 2 1.96c0 1.084-.895 1.962-2 1.962s-2-.878-2-1.961ZM12 1.962C12 .878 12.895 0 14 0s2 .878 2 1.962c0 1.083-.895 1.961-2 1.961s-2-.878-2-1.961ZM0 49.038c0-1.083.895-1.961 2-1.961s2 .878 2 1.962C4 50.121 3.105 51 2 51s-2-.878-2-1.962ZM0 37.27c0-1.084.895-1.962 2-1.962s2 .878 2 1.961c0 1.084-.895 1.962-2 1.962s-2-.878-2-1.962ZM0 25.5c0-1.083.895-1.962 2-1.962s2 .879 2 1.962-.895 1.962-2 1.962-2-.879-2-1.962ZM0 13.73c0-1.083.895-1.96 2-1.96s2 .877 2 1.96c0 1.084-.895 1.962-2 1.962s-2-.878-2-1.961ZM0 1.962C0 .878.895 0 2 0s2 .878 2 1.962c0 1.083-.895 1.961-2 1.961s-2-.878-2-1.961Z"/></svg>