<svg width="32" height="32" viewBox="0 0 32 32" fill="none" xmlns="http://www.w3.org/2000/svg">
<path d="M22.667 22.6532C20.867 22.6532 19.7337 23.2132 18.7337 23.7199C17.867 24.1599 17.1603 24.5199 16.0003 24.5199C14.8003 24.5199 14.1337 24.1866 13.267 23.7199C12.267 23.2132 11.1737 22.6532 9.33366 22.6532C7.49366 22.6532 6.40033 23.2132 5.40033 23.7199C4.82699 24.0132 4.32033 24.2665 3.70699 24.4132C3.10699 24.5465 2.66699 25.0265 2.66699 25.6265V25.7599C2.66699 26.5599 3.41366 27.1332 4.18699 26.9732C5.17366 26.7732 5.92033 26.3999 6.60033 26.0532C7.46699 25.6132 8.16033 25.2532 9.33366 25.2532C10.507 25.2532 11.2003 25.5865 12.067 26.0532C13.067 26.5599 14.1603 27.1199 16.0003 27.1199C17.8403 27.1199 18.9337 26.5599 19.9337 26.0532C20.8003 25.6132 21.507 25.2532 22.667 25.2532C23.867 25.2532 24.5337 25.5865 25.4003 26.0532C26.0937 26.3999 26.8403 26.7865 27.8403 26.9865C28.0205 27.0217 28.2061 27.0169 28.3842 26.9724C28.5622 26.9279 28.7283 26.8449 28.8708 26.7292C29.0132 26.6134 29.1285 26.4678 29.2085 26.3026C29.2885 26.1375 29.3312 25.9567 29.3337 25.7732V25.6532C29.3337 25.0399 28.8803 24.5599 28.2803 24.4265C27.667 24.2932 27.1737 24.0399 26.6003 23.7332C25.6003 23.2132 24.467 22.6532 22.667 22.6532ZM22.667 16.7199C20.867 16.7199 19.7337 17.2932 18.7337 17.7865C17.867 18.2132 17.1603 18.5865 16.0003 18.5865C14.8003 18.5865 14.1337 18.2532 13.267 17.7865C12.267 17.2799 11.1737 16.7199 9.33366 16.7199C7.49366 16.7199 6.40033 17.2932 5.40033 17.7865C4.82699 18.0665 4.32033 18.3332 3.69366 18.4799C3.10699 18.6132 2.66699 19.0932 2.66699 19.6932V19.8265C2.66707 20.0108 2.70822 20.1928 2.78746 20.3592C2.8667 20.5256 2.98203 20.6722 3.12506 20.7884C3.26809 20.9046 3.43522 20.9875 3.61431 21.031C3.79339 21.0745 3.97992 21.0775 4.16033 21.0399C5.16033 20.8399 5.90699 20.4532 6.60033 20.1199C7.46699 19.6532 8.13366 19.3199 9.33366 19.3199C10.5337 19.3199 11.2003 19.6532 12.067 20.1199C13.067 20.6265 14.1603 21.1865 16.0003 21.1865C17.8403 21.1865 18.9337 20.6132 19.9337 20.1199C20.8003 19.6532 21.467 19.3199 22.667 19.3199C23.867 19.3199 24.5337 19.6532 25.4003 20.1199C26.0937 20.4665 26.8403 20.8532 27.8403 21.0532C28.0215 21.0886 28.2083 21.0835 28.3874 21.0382C28.5664 20.993 28.7332 20.9088 28.8759 20.7916C29.0185 20.6744 29.1336 20.5271 29.2127 20.3603C29.2918 20.1934 29.3331 20.0112 29.3337 19.8265V19.7065C29.3337 19.0932 28.8803 18.6132 28.2803 18.4799C27.667 18.3465 27.1737 18.0932 26.6003 17.7865C25.6003 17.2799 24.467 16.7199 22.667 16.7199ZM26.6003 5.94655C25.6003 5.43988 24.4937 4.87988 22.667 4.87988C20.8403 4.87988 19.7337 5.43988 18.7337 5.94655C17.867 6.37322 17.1603 6.74655 16.0003 6.74655C14.8003 6.74655 14.1337 6.41322 13.267 5.94655C12.267 5.45322 11.1737 4.87988 9.33366 4.87988C7.49366 4.87988 6.40033 5.43988 5.40033 5.94655C4.82699 6.23988 4.32033 6.49322 3.70699 6.63988C3.10699 6.77322 2.66699 7.25322 2.66699 7.85322V7.94655C2.66699 8.74655 3.38699 9.33322 4.16033 9.17322C5.16033 8.97322 5.90699 8.58655 6.60033 8.25322C7.46699 7.81322 8.16033 7.45322 9.33366 7.45322C10.507 7.45322 11.2003 7.78655 12.067 8.25322C13.067 8.75988 14.1603 9.31988 16.0003 9.31988C17.8403 9.31988 18.9337 8.74655 19.9337 8.25322C20.8003 7.82655 21.507 7.45322 22.667 7.45322C23.867 7.45322 24.5337 7.78655 25.4003 8.25322C26.0937 8.59988 26.8403 8.98655 27.8403 9.18655C28.0215 9.22191 28.2083 9.21679 28.3874 9.17155C28.5664 9.12632 28.7332 9.04209 28.8759 8.92489C29.0185 8.80769 29.1336 8.66042 29.2127 8.49359C29.2918 8.32677 29.3331 8.14452 29.3337 7.95988V7.83988C29.3337 7.22655 28.8803 6.74655 28.2803 6.61322C27.667 6.47988 27.1737 6.23988 26.6003 5.94655ZM22.667 10.7865C20.867 10.7865 19.7337 11.3599 18.7337 11.8532C17.867 12.3199 17.2003 12.6532 16.0003 12.6532C14.8003 12.6532 14.1337 12.3199 13.267 11.8532C12.267 11.3465 11.1737 10.7865 9.33366 10.7865C7.49366 10.7865 6.40033 11.3599 5.40033 11.8532C4.82699 12.1599 4.33366 12.4132 3.72033 12.5465C3.12033 12.6799 2.66699 13.1599 2.66699 13.7732V13.8932C2.66707 14.0775 2.70822 14.2595 2.78746 14.4259C2.8667 14.5922 2.98203 14.7389 3.12506 14.8551C3.26809 14.9713 3.43522 15.0542 3.61431 15.0977C3.79339 15.1412 3.97992 15.1442 4.16033 15.1065C5.16033 14.9065 5.90699 14.5199 6.60033 14.1865C7.46699 13.7599 8.17366 13.3865 9.33366 13.3865C10.4937 13.3865 11.2003 13.7199 12.067 14.1865C13.067 14.6932 14.1603 15.2532 16.0003 15.2532C17.8403 15.2532 18.9337 14.6799 19.9337 14.1865C20.8003 13.7599 21.507 13.3865 22.667 13.3865C23.867 13.3865 24.5337 13.7199 25.4003 14.1865C26.0937 14.5332 26.8403 14.9199 27.8403 15.1199C28.0205 15.155 28.2061 15.1502 28.3842 15.1057C28.5622 15.0613 28.7283 14.9782 28.8708 14.8625C29.0132 14.7468 29.1285 14.6012 29.2085 14.436C29.2885 14.2708 29.3312 14.0901 29.3337 13.9065V13.7865C29.3337 13.1732 28.8803 12.6932 28.2803 12.5599C27.667 12.4265 27.1737 12.1732 26.6003 11.8665C25.6003 11.3465 24.467 10.7865 22.667 10.7865Z" fill="url(#paint0_linear_29_236)"/>
<defs>
<linearGradient id="paint0_linear_29_236" x1="16.0003" y1="4.87988" x2="16.0003" y2="27.1199" gradientUnits="userSpaceOnUse">
<stop stop-color="#FFBF00"/>
<stop offset="1" stop-color="#F2A60C"/>
</linearGradient>
</defs>
</svg>
