<svg width="28" height="28" viewBox="0 0 28 28" fill="none" xmlns="http://www.w3.org/2000/svg">
<path d="M14 0C10.1966 0 9.72186 0.0175 8.2285 0.084C6.7375 0.154 5.7225 0.3885 4.83 0.735C3.9095 1.092 3.12784 1.5715 2.34966 2.34966C1.5715 3.12784 1.09084 3.90834 0.735 4.83C0.3885 5.7225 0.152834 6.7375 0.084 8.2285C0.014 9.72186 0 10.1966 0 14C0 17.8034 0.0175 18.2781 0.084 19.7715C0.154 21.2614 0.3885 22.2775 0.735 23.17C1.092 24.0894 1.5715 24.8721 2.34966 25.6504C3.12784 26.4274 3.90834 26.9091 4.83 27.265C5.72366 27.6104 6.73866 27.8471 8.2285 27.916C9.72186 27.986 10.1966 28 14 28C17.8034 28 18.2781 27.9825 19.7715 27.916C21.2614 27.846 22.2775 27.6104 23.17 27.265C24.0894 26.908 24.8721 26.4274 25.6504 25.6504C26.4274 24.8721 26.9091 24.0929 27.265 23.17C27.6104 22.2775 27.8471 21.2614 27.916 19.7715C27.986 18.2781 28 17.8034 28 14C28 10.1966 27.9825 9.72186 27.916 8.2285C27.846 6.73866 27.6104 5.72134 27.265 4.83C26.908 3.9095 26.4274 3.12784 25.6504 2.34966C24.8721 1.5715 24.0929 1.09084 23.17 0.735C22.2775 0.3885 21.2614 0.152834 19.7715 0.084C18.2781 0.014 17.8034 0 14 0ZM14 2.52C17.7369 2.52 18.1825 2.53866 19.6584 2.60284C21.0234 2.667 21.7641 2.89334 22.2565 3.087C22.9121 3.34016 23.3765 3.6435 23.8689 4.13234C24.3576 4.62234 24.661 5.08784 24.9141 5.7435C25.1055 6.23584 25.3341 6.97666 25.396 8.34166C25.4625 9.81864 25.4776 10.262 25.4776 14C25.4776 17.738 25.4601 18.1825 25.3914 19.6584C25.3201 21.0234 25.0926 21.7641 24.9001 22.2565C24.6389 22.9121 24.3414 23.3765 23.8514 23.8689C23.3625 24.3576 22.89 24.661 22.2414 24.9141C21.7514 25.1055 20.9989 25.3341 19.6339 25.396C18.1475 25.4625 17.71 25.4776 13.965 25.4776C10.2189 25.4776 9.78136 25.4601 8.29616 25.3914C6.93 25.3201 6.1775 25.0926 5.6875 24.9001C5.02366 24.6389 4.5675 24.3414 4.07866 23.8514C3.5875 23.3625 3.27366 22.89 3.02866 22.2414C2.83616 21.7514 2.60984 20.9989 2.53866 19.6339C2.48616 18.1639 2.4675 17.71 2.4675 13.9825C2.4675 10.2539 2.48616 9.79886 2.53866 8.31134C2.60984 6.94634 2.83616 6.195 3.02866 5.705C3.27366 5.04 3.5875 4.585 4.07866 4.09384C4.5675 3.605 5.02366 3.29 5.6875 3.04616C6.1775 2.8525 6.91366 2.625 8.27866 2.555C9.76614 2.5025 10.2036 2.485 13.9475 2.485L14 2.52ZM14 6.811C10.0275 6.811 6.811 10.031 6.811 14C6.811 17.9725 10.031 21.189 14 21.189C17.9725 21.189 21.189 17.969 21.189 14C21.189 10.0275 17.969 6.811 14 6.811ZM14 18.6666C11.4216 18.6666 9.33336 16.5784 9.33336 14C9.33336 11.4216 11.4216 9.33336 14 9.33336C16.5784 9.33336 18.6666 11.4216 18.6666 14C18.6666 16.5784 16.5784 18.6666 14 18.6666ZM23.1536 6.5275C23.1536 7.455 22.4 8.2075 21.4736 8.2075C20.5461 8.2075 19.7936 7.45384 19.7936 6.5275C19.7936 5.60116 20.5474 4.84866 21.4736 4.84866C22.3989 4.8475 23.1536 5.60116 23.1536 6.5275Z" fill="url(#paint0_linear_35_236)"/>
<defs>
<linearGradient id="paint0_linear_35_236" x1="14" y1="0" x2="14" y2="28" gradientUnits="userSpaceOnUse">
<stop stop-color="#FFBF00"/>
<stop offset="1" stop-color="#F2A60C"/>
</linearGradient>
</defs>
</svg>
