<svg width="32" height="32" viewBox="0 0 32 32" fill="none" xmlns="http://www.w3.org/2000/svg">
<path d="M16.0002 10.6666C13.0535 10.6666 10.6668 13.0533 10.6668 15.9999C10.6668 18.9466 13.0535 21.3333 16.0002 21.3333C18.9468 21.3333 21.3335 18.9466 21.3335 15.9999C21.3335 13.0533 18.9468 10.6666 16.0002 10.6666ZM27.9202 14.6666C27.6181 11.9627 26.4057 9.44197 24.4819 7.51818C22.5581 5.59439 20.0373 4.38193 17.3335 4.07992V2.66659C17.3335 1.93325 16.7335 1.33325 16.0002 1.33325C15.2668 1.33325 14.6668 1.93325 14.6668 2.66659V4.07992C11.963 4.38193 9.44221 5.59439 7.51842 7.51818C5.59463 9.44197 4.38218 11.9627 4.08016 14.6666H2.66683C1.9335 14.6666 1.3335 15.2666 1.3335 15.9999C1.3335 16.7333 1.9335 17.3333 2.66683 17.3333H4.08016C4.38218 20.0371 5.59463 22.5579 7.51842 24.4817C9.44221 26.4055 11.963 27.6179 14.6668 27.9199V29.3333C14.6668 30.0666 15.2668 30.6666 16.0002 30.6666C16.7335 30.6666 17.3335 30.0666 17.3335 29.3333V27.9199C20.0373 27.6179 22.5581 26.4055 24.4819 24.4817C26.4057 22.5579 27.6181 20.0371 27.9202 17.3333H29.3335C30.0668 17.3333 30.6668 16.7333 30.6668 15.9999C30.6668 15.2666 30.0668 14.6666 29.3335 14.6666H27.9202ZM16.0002 25.3333C10.8402 25.3333 6.66683 21.1599 6.66683 15.9999C6.66683 10.8399 10.8402 6.66659 16.0002 6.66659C21.1602 6.66659 25.3335 10.8399 25.3335 15.9999C25.3335 21.1599 21.1602 25.3333 16.0002 25.3333Z" fill="url(#paint0_linear_29_225)"/>
<defs>
<linearGradient id="paint0_linear_29_225" x1="16.0002" y1="1.33325" x2="16.0002" y2="30.6666" gradientUnits="userSpaceOnUse">
<stop stop-color="#FFBF00"/>
<stop offset="1" stop-color="#F2A60C"/>
</linearGradient>
</defs>
</svg>
