<svg width="32" height="32" viewBox="0 0 32 32" fill="none" xmlns="http://www.w3.org/2000/svg">
<path d="M23.9997 9.66659H22.6663V6.99992C22.6663 3.31992 19.6797 0.333252 15.9997 0.333252C12.3197 0.333252 9.33301 3.31992 9.33301 6.99992V9.66659H7.99967C6.53301 9.66659 5.33301 10.8666 5.33301 12.3333V25.6666C5.33301 27.1333 6.53301 28.3333 7.99967 28.3333H23.9997C25.4663 28.3333 26.6663 27.1333 26.6663 25.6666V12.3333C26.6663 10.8666 25.4663 9.66659 23.9997 9.66659ZM15.9997 21.6666C14.533 21.6666 13.333 20.4666 13.333 18.9999C13.333 17.5333 14.533 16.3333 15.9997 16.3333C17.4663 16.3333 18.6663 17.5333 18.6663 18.9999C18.6663 20.4666 17.4663 21.6666 15.9997 21.6666ZM11.9997 9.66659V6.99992C11.9997 4.78659 13.7863 2.99992 15.9997 2.99992C18.213 2.99992 19.9997 4.78659 19.9997 6.99992V9.66659H11.9997Z" fill="url(#paint0_linear_29_227)"/>
<defs>
<linearGradient id="paint0_linear_29_227" x1="15.9997" y1="0.333252" x2="15.9997" y2="28.3333" gradientUnits="userSpaceOnUse">
<stop stop-color="#FFBF00"/>
<stop offset="1" stop-color="#F2A60C"/>
</linearGradient>
</defs>
</svg>
