<svg width="32" height="32" viewBox="0 0 32 32" fill="none" xmlns="http://www.w3.org/2000/svg">
<path d="M8.06652 10.7332C6.32089 12.4791 5.33802 14.8455 5.33303 17.3144C5.32803 19.7833 6.30131 22.1536 8.03985 23.9065C9.99985 19.3732 13.4932 15.5865 17.8532 13.3332C14.0899 16.5174 11.5496 20.91 10.6665 25.7599C14.1332 27.3999 18.3999 26.7999 21.2665 23.9332C25.2532 19.9465 26.3732 9.07988 26.6132 6.09321C26.6215 5.99831 26.609 5.90273 26.5764 5.8132C26.5439 5.72367 26.4921 5.64236 26.4247 5.575C26.3574 5.50764 26.2761 5.45585 26.1865 5.42329C26.097 5.39073 26.0014 5.37819 25.9065 5.38655C22.9199 5.62655 12.0532 6.74655 8.06652 10.7332Z" fill="url(#paint0_linear_29_234)"/>
<defs>
<linearGradient id="paint0_linear_29_234" x1="15.9744" y1="5.38403" x2="15.9744" y2="26.6591" gradientUnits="userSpaceOnUse">
<stop stop-color="#FFBF00"/>
<stop offset="1" stop-color="#F2A60C"/>
</linearGradient>
</defs>
</svg>
