<svg width="16" height="16" viewBox="0 0 16 16" fill="none" xmlns="http://www.w3.org/2000/svg">
<path d="M14.0245 10.7171L11.9075 10.4751C11.6587 10.4459 11.4066 10.4735 11.17 10.5558C10.9334 10.638 10.7185 10.7728 10.5415 10.9501L9.00751 12.4831C6.64221 11.2799 4.71963 9.35736 3.51651 6.99206L5.05751 5.45006C5.41651 5.09206 5.59151 4.59206 5.53251 4.08306L5.29151 1.98306C5.24415 1.57647 5.04893 1.20149 4.74301 0.929502C4.4371 0.657517 4.04185 0.507517 3.63251 0.508058H2.19151C1.24951 0.508058 0.466513 1.29206 0.524513 2.23306C0.966513 9.35006 6.65751 15.0331 13.7665 15.4751C14.7075 15.5331 15.4915 14.7501 15.4915 13.8081V12.3671C15.4936 11.9595 15.3449 11.5656 15.0741 11.261C14.8033 10.9564 14.4295 10.7627 14.0245 10.7171Z" fill="url(#paint0_linear_35_246)"/>
<defs>
<linearGradient id="paint0_linear_35_246" x1="8.00651" y1="0.508057" x2="8.00651" y2="15.4781" gradientUnits="userSpaceOnUse">
<stop stop-color="#FFBF00"/>
<stop offset="1" stop-color="#F2A60C"/>
</linearGradient>
</defs>
</svg>
