<svg width="28" height="28" viewBox="0 0 28 28" fill="none" xmlns="http://www.w3.org/2000/svg">
<path d="M27.4144 7.21691C27.2562 6.62107 26.9442 6.07724 26.5097 5.63988C26.0753 5.20253 25.5335 4.88701 24.9386 4.72491C22.7559 4.13574 14 4.13574 14 4.13574C14 4.13574 5.24416 4.13574 3.06016 4.72491C2.46565 4.8873 1.92418 5.20294 1.48992 5.64025C1.05567 6.07758 0.743857 6.62126 0.585666 7.21691C0 9.41492 0 13.9999 0 13.9999C0 13.9999 0 18.5849 0.585666 20.7829C0.743851 21.3788 1.0558 21.9226 1.49029 22.3599C1.92477 22.7973 2.46654 23.1128 3.06134 23.2749C5.24416 23.8641 14 23.8641 14 23.8641C14 23.8641 22.7559 23.8641 24.9399 23.2749C25.5347 23.113 26.0765 22.7974 26.511 22.3601C26.9455 21.9227 27.2574 21.3788 27.4155 20.7829C28 18.5849 28 13.9999 28 13.9999C28 13.9999 28 9.41492 27.4144 7.21691ZM11.1359 18.1626V9.83728L18.4544 13.9999L11.1359 18.1626Z" fill="url(#paint0_linear_35_237)"/>
<defs>
<linearGradient id="paint0_linear_35_237" x1="14" y1="4.13574" x2="14" y2="23.8641" gradientUnits="userSpaceOnUse">
<stop stop-color="#FFBF00"/>
<stop offset="1" stop-color="#F2A60C"/>
</linearGradient>
</defs>
</svg>
