<svg xmlns="http://www.w3.org/2000/svg" width="196" height="34" fill="none"><g clip-path="url(#a)"><path fill="#9C9C9C" d="M21.644 32.955a6.988 6.988 0 0 1-3.38-.77 6.868 6.868 0 0 1-2.574-2.29 11.633 11.633 0 0 1-7.47 3.06c-4.987 0-7.69-3.464-6.777-8.43.694-3.734 3.799-7.476 4.667-10.48-1.68-1.008-4.174-1.71-5.343.35L0 13.935c.612-2.257 2.091-3.76 4.228-3.76 2.137 0 3.717 1.25 5.754.1h1.625c-.867 4.498-3.059 8.096-4.228 14.394-.712 3.86.612 5.614 2.85 5.614a6.789 6.789 0 0 0 4.273-2.26 18.005 18.005 0 0 1-1.324-6.917c0-5.47 2.548-11.236 6.822-11.236 2.192 0 3.817 1.502 3.817 5.065 0 3.562-2.191 9.077-4.986 12.54.151.825.59 1.572 1.24 2.113.65.54 1.471.84 2.322.848 4.073 0 6.922-6.02 6.922-11.588s-2.447-5.317-2.237-7.197a1.79 1.79 0 0 1 .627-1.222c.364-.31.838-.465 1.318-.433 1.27 0 2.94 1.583 2.94 8.007 0 8.186-4.419 14.952-10.319 14.952Zm-.922-20.26c-1.27 0-2.494 4.615-2.649 9.383a20.13 20.13 0 0 0 .055 3.059 23.758 23.758 0 0 0 3.415-10.283c-.009-1.62-.31-2.16-.822-2.16h.001Zm19.607 20.053a3.706 3.706 0 0 1-1.577-.181 3.66 3.66 0 0 1-1.35-.822 3.594 3.594 0 0 1-.868-1.31 3.548 3.548 0 0 1-.224-1.547c0-2.204 2.905-13.19 2.905-14.997 0-.854-.201-1.358-.968-1.358a4.448 4.448 0 0 0-2.293 1.106v-1.556a7.54 7.54 0 0 1 4.84-1.952 3.716 3.716 0 0 1 2.932 1.038c.382.372.678.822.866 1.32.187.496.263 1.027.22 1.555 0 2.204-2.903 13.144-2.903 14.943 0 .855.2 1.359.968 1.359a4.798 4.798 0 0 0 2.292-1.053v1.502a7.438 7.438 0 0 1-4.84 1.953ZM43.89.998c.398-.011.794.06 1.161.215.366.154.695.384.961.675a2.662 2.662 0 0 1 .682 2.17 3.437 3.437 0 0 1-1.121 2.158c-.63.564-1.44.883-2.285.9a2.776 2.776 0 0 1-2.122-.888 2.662 2.662 0 0 1-.682-2.17c.098-.832.497-1.6 1.121-2.158A3.537 3.537 0 0 1 43.89.999Zm11.306 27.036c-.255 1.358-.1 2.303.868 2.303a4.596 4.596 0 0 0 2.292-1.053l.091 1.51a7.54 7.54 0 0 1-4.84 1.954c-3.16 0-4.383-2.258-3.917-5.065l3.105-17.408c1.032-5.812.675-6.577-2.485-6.577l.201-1.403 9.525-1.242-4.84 26.98Zm26.786-.046c-.256 1.359-.156 2.358.867 2.358.85-.159 1.64-.54 2.293-1.107v1.556a7.365 7.365 0 0 1-4.84 1.953 3.692 3.692 0 0 1-2.531-.766 3.588 3.588 0 0 1-1.342-2.248 8.288 8.288 0 0 1-2.877 2.37 8.418 8.418 0 0 1-3.643.887c-6.055 0-8.603-5.263-7.434-11.588 1.169-6.324 6.62-11.488 12.785-11.488a8.68 8.68 0 0 1 4.192.98l.155-.8c1.206-6.19.649-6.397-2.511-6.397l.155-1.403 9.57-1.242-4.84 26.936.001-.001Zm-6.567-15.806c-3.516 0-5.853 4.11-6.776 9.176-.968 5.317-.356 8.997 2.95 8.997 2.237 0 4.785-2.7 5.552-6.82L79.023 13.1a6.534 6.534 0 0 0-3.608-.918Zm22.658 20.817c-7.078 0-9.014-5.02-8.146-9.833l2.31-12.891c1.069-5.82.713-6.622-2.447-6.622l.2-1.403 9.553-1.197-1.936 10.93a8.611 8.611 0 0 1 5.343-2.06c6.164 0 9.059 5.165 7.945 11.489-1.114 6.325-6.785 11.587-12.822 11.587Zm3.306-20.691a4.924 4.924 0 0 0-2.845.974 4.805 4.805 0 0 0-1.721 2.435l-1.425 8.097c-.868 4.813.868 6.774 3.06 6.774 3.205 0 5.196-3.508 6.264-9.275.95-5.164.083-8.978-3.342-8.978l.009-.027Zm19.169 12.019c0 3.86 1.881 5.92 5.479 5.92 1.827 0 4.484-1.25 6.165-2.906l.712 1.6a13.17 13.17 0 0 1-4.267 2.969 13.323 13.323 0 0 1-5.103 1.098c-5.342 0-8.959-3.913-8.959-9.23 0-7.872 6.621-13.845 12.987-13.845 3.872 0 6.054 2.105 6.054 4.56-.045 3.815-3.716 8.098-13.068 9.834Zm6.566-12.091c-2.904 0-5.698 4.165-6.466 10.13 5.854-1.404 8.347-5.317 8.402-7.827-.009-1.403-.676-2.303-1.945-2.303h.009Zm27.279 20.512a3.693 3.693 0 0 1-2.531-.766 3.588 3.588 0 0 1-1.341-2.248 7.991 7.991 0 0 1-2.806 2.373 8.117 8.117 0 0 1-3.587.883c-5.954 0-8.502-5.262-7.306-11.587 1.196-6.324 6.557-11.48 12.74-11.48a9.757 9.757 0 0 1 3.817.757h5.808l-3.114 17.308c-.256 1.359-.155 2.358.868 2.358a4.86 4.86 0 0 0 2.292-1.107v1.556a7.365 7.365 0 0 1-4.84 1.953Zm-4.685-20.566c-3.416 0-5.808 4.11-6.722 9.176-.968 5.317-.301 8.997 2.74 8.997 2.338 0 4.84-2.807 5.553-6.82L153.16 13.1a5.969 5.969 0 0 0-3.443-.918h-.009Zm27.297 3.66c-1.379 0-1.736-1.051-2.137-2.158a2.467 2.467 0 0 0-.929-1.396 2.53 2.53 0 0 0-1.619-.493 3.06 3.06 0 0 0-2.083.674 2.975 2.975 0 0 0-1.077 1.88c-.155 1.36.867 2.51 2.803 4.166l2.594 2.105a6.571 6.571 0 0 1 2.164 2.8c.449 1.11.582 2.32.384 3.498-.658 3.76-3.817 6.072-8.046 6.072-5.096 0-8.347-2.96-7.991-4.966a2.24 2.24 0 0 1 .763-1.358c.41-.35.933-.544 1.475-.55 1.324 0 1.826 1 2.237 2.304.264.75.771 1.392 1.443 1.828a3.694 3.694 0 0 0 2.274.583 3.219 3.219 0 0 0 2.184-.718 3.129 3.129 0 0 0 1.122-1.98c.201-1.8-.913-2.906-3.004-4.77l-2.548-2.203a6.299 6.299 0 0 1-2.028-2.607 6.209 6.209 0 0 1-.42-3.258c.457-2.411 2.74-5.398 7.991-5.398 4.073 0 6.621 2.258 6.393 4.066-.026.498-.24.969-.6 1.315-.36.348-.841.55-1.345.565Zm18.639-3.147h-4.941l-2.392 13.332c-.512 2.762-.101 4.013 1.424 4.013.813 0 2.091-.45 3.918-2.303l.1 1.952a8.88 8.88 0 0 1-3.015 2.28 9.003 9.003 0 0 1-3.706.832c-3.461 0-5.196-2.41-4.374-6.873l2.392-13.233h-3.863l.302-2.06h3.899l1.023-5.965h5.699l-1.069 5.964h4.941l-.338 2.06Z"/></g><defs><clipPath id="a"><path fill="#fff" d="M0 0h196v34H0z"/></clipPath></defs></svg>